<svg xmlns="http://www.w3.org/2000/svg" viewBox="0 0 806 1024" width="806" height="1024">
  <path d="M 122.0 393.0 L 122.0 209.1 L 128.0 364.0 L 134.0 388.1 L 140.0 387.0 L 146.0 387.0 L 152.0 387.0 L 158.0 387.0 L 164.0 387.0 L 170.0 387.2 L 176.0 387.1 L 182.0 383.5 L 188.0 376.6 L 194.0 370.7 L 200.0 363.7 L 206.0 352.5 L 212.0 335.7 L 218.0 320.1 L 224.0 309.1 L 230.0 298.3 L 236.0 289.9 L 242.0 281.5 L 248.0 273.0 L 254.0 264.8 L 260.0 254.4 L 266.0 243.4 L 272.0 235.4 L 278.0 226.5 L 284.0 220.7 L 290.0 217.8 L 296.0 214.3 L 302.0 210.9 L 308.0 209.7 L 314.0 209.3 L 320.0 207.9 L 326.0 204.8 L 332.0 201.8 L 338.0 200.7 L 344.0 198.3 L 350.0 196.3 L 356.0 195.1 L 362.0 191.3 L 368.0 182.9 L 374.0 174.9 L 380.0 168.5 L 386.0 164.4 L 392.0 160.5 L 398.0 156.6 L 404.0 151.9 L 410.0 147.3 L 416.0 127.0 L 422.0 104.9 L 428.0 84.5 L 434.0 73.2 L 440.0 69.6 L 446.0 73.9 L 452.0 84.5 L 458.0 99.3 L 464.0 118.9 L 470.0 139.5 L 476.0 156.8 L 482.0 162.3 L 488.0 168.1 L 494.0 173.3 L 500.0 178.5 L 506.0 185.4 L 512.0 193.5 L 518.0 202.3 L 524.0 211.8 L 530.0 218.1 L 536.0 221.2 L 542.0 225.1 L 548.0 230.7 L 554.0 234.9 L 560.0 237.9 L 566.0 240.7 L 572.0 244.6 L 578.0 250.1 L 584.0 254.1 L 590.0 257.0 L 596.0 261.1 L 602.0 267.0 L 608.0 273.3 L 614.0 281.7 L 620.0 291.5 L 626.0 303.8 L 632.0 314.4 L 638.0 324.2 L 644.0 334.5 L 650.0 344.0 L 656.0 354.2 L 662.0 366.8 L 668.0 377.3 L 674.0 386.3 L 680.0 389.3 L 686.0 386.0 L 692.0 381.9 L 698.0 383.7 L 704.0 388.6 L 710.0 392.0 L 716.0 392.0 L 722.0 392.0 L 728.0 339.7 L 728.0 393.0 Z" fill="#000000"/>
</svg>
